<svg width="29" height="29" viewBox="0 0 29 29" fill="none" xmlns="http://www.w3.org/2000/svg">
<path d="M28.6139 26.7498L19.6258 17.7618C21.094 15.8938 21.9707 13.54 21.9707 10.9854C21.9707 4.92798 17.0427 0 10.9853 0C4.92798 0 0 4.92798 0 10.9854C0 17.0426 4.92798 21.9706 10.9853 21.9706C13.5399 21.9706 15.8938 21.094 17.7616 19.6259L26.7497 28.6139C27.0071 28.8713 27.3444 29 27.6818 29C28.0192 29 28.3566 28.8713 28.6139 28.6139C29.1287 28.0992 29.1287 27.2645 28.6139 26.7498ZM2.63636 10.9854C2.63636 6.38167 6.38167 2.63636 10.9853 2.63636C15.589 2.63636 19.3343 6.38167 19.3343 10.9853C19.3343 15.5889 15.589 19.3341 10.9853 19.3341C6.38167 19.3342 2.63636 15.5889 2.63636 10.9854Z" fill="#B0B0B0"/>
</svg>
