<svg width="21" height="17" viewBox="0 0 21 17" fill="none" xmlns="http://www.w3.org/2000/svg">
<g clip-path="url(#clip0_69_223)">
<path d="M20.418 12.8718L16.324 9.3308V12.1429H15.9233C13.3058 12.1429 11.9881 10.2787 10.4622 8.12011C8.89822 5.90769 7.12555 3.40002 3.56286 3.40002H0.753662V4.85718H3.56286C6.18036 4.85718 7.49806 6.7214 9.02397 8.87997C10.5879 11.0924 12.3606 13.6001 15.9233 13.6001H16.324V16.4119L20.418 12.8718Z" fill="white"/>
<path d="M20.418 4.12896L16.324 0.588013V3.40015H15.9233C13.361 3.40015 11.7247 4.69716 10.4259 6.24858C10.7737 6.69961 11.0954 7.15333 11.4011 7.5856C12.5926 6.02688 13.8503 4.85724 15.9233 4.85724H16.324V7.66908L20.418 4.12896Z" fill="white"/>
<path d="M8.08504 9.41467C6.8935 10.9733 5.63583 12.143 3.56286 12.143H0.753662V13.6001H3.56286C6.12513 13.6001 7.76146 12.3031 9.06023 10.7517C8.71241 10.3007 8.39068 9.84694 8.08504 9.41467Z" fill="white"/>
</g>
<defs>
<clipPath id="clip0_69_223">
<rect width="19.6643" height="17" fill="white" transform="translate(0.753662)"/>
</clipPath>
</defs>
</svg>
