<svg width="13" height="16" viewBox="0 0 13 16" fill="none" xmlns="http://www.w3.org/2000/svg">
<path d="M11.8226 0H1.82749C1.21509 0 0.716919 0.58875 0.716919 1.3125V2.757C0.716919 3.30825 0.898418 3.8265 1.22842 4.21575L4.92693 8.58375C5.07416 8.75775 5.15919 9 5.15919 9.24675V15.1875C5.15919 15.4073 5.26708 15.6067 5.43652 15.6982C5.49998 15.7335 5.56788 15.75 5.63515 15.75C5.74684 15.75 5.85727 15.7035 5.94484 15.6143L7.72239 13.8135C8.11014 13.422 8.33225 12.8505 8.33225 12.2475V9.2625C8.33225 9.00975 8.42046 8.763 8.57467 8.5875L12.3995 4.22625C12.7384 3.84 12.9325 3.2985 12.9325 2.742V1.3125C12.9332 0.58875 12.435 0 11.8226 0V0Z" fill="white"/>
</svg>
