<svg width="21" height="20" viewBox="0 0 21 20" fill="none" xmlns="http://www.w3.org/2000/svg">
<path d="M20.5638 7.24277C20.4338 6.83779 20.0771 6.55015 19.6551 6.51185L13.9232 5.9877L11.6566 0.645005C11.4895 0.253455 11.1089 0 10.686 0C10.2631 0 9.88247 0.253455 9.71535 0.645921L7.44879 5.9877L1.71594 6.51185C1.29472 6.55107 0.938954 6.83779 0.808194 7.24277C0.677434 7.64775 0.798194 8.09194 1.11684 8.37195L5.4495 12.1986L4.1719 17.8664C4.07841 18.2831 4.23902 18.7139 4.58236 18.9638C4.76691 19.0981 4.98283 19.1664 5.20056 19.1664C5.38829 19.1664 5.5745 19.1155 5.74163 19.0148L10.686 16.0388L15.6285 19.0148C15.9902 19.2339 16.4461 19.2139 16.7887 18.9638C17.1322 18.7131 17.2926 18.2822 17.1991 17.8664L15.9215 12.1986L20.2542 8.37271C20.5728 8.09194 20.6945 7.64851 20.5638 7.24277Z" fill="#FFC107"/>
</svg>
